<svg xmlns="http://www.w3.org/2000/svg" viewBox="0 0 48 48">
	<g class="nc-icon-wrapper">
		<path fill="#666" d="M4.42031,45.42031l-1.84062-1.84062c-0.33706-0.33706-0.38936-0.86518-0.12494-1.26181L6,37l5,5 l-5.31788,3.54525C5.2855,45.80967,4.75738,45.75737,4.42031,45.42031z" />
		<path fill="#C6C6C6" d="M11.63574,43.021c-0.25684,0-0.51367-0.09912-0.70703-0.29297L5.27246,37.0708 c-0.35449-0.35449-0.3916-0.9165-0.08691-1.31445L21,17l10,10L12.24316,42.81543C12.06249,42.95312,11.84863,43.021,11.63574,43.021 z" />
		<path fill="#E86C60" d="M14,31c-0.25586,0-0.51172-0.09766-0.70703-0.29297c-0.39062-0.39062-0.39062-1.02344,0-1.41406l3-3 c0.39062-0.39062,1.02344-0.39062,1.41406,0s0.39062,1.02344,0,1.41406l-3,3C14.51172,30.90234,14.25586,31,14,31z" />
		<path fill="#666" d="M23.80761,24.19239c5.06852,5.06852,13.31591,5.06886,18.38478,0L23.80761,5.80761 C18.73875,10.87648,18.73909,19.12387,23.80761,24.19239z" />
		<path fill="#999" d="M42.19239,5.80761c-5.06852-5.06852-13.31591-5.06886-18.38478,0l18.38478,18.38478 C47.26125,19.12352,47.26091,10.87613,42.19239,5.80761z" />
		<path fill="#B3B3B3" d="M42,25c-0.25586,0-0.51172-0.09766-0.70703-0.29297l-18-18c-0.39062-0.39062-0.39062-1.02344,0-1.41406 s1.02344-0.39062,1.41406,0l18,18c0.39062,0.39062,0.39062,1.02344,0,1.41406C42.51172,24.90234,42.25586,25,42,25z" />
	</g>
</svg>
