<svg xmlns="http://www.w3.org/2000/svg" viewBox="0 0 48 48"><g class="nc-icon-wrapper"><path d="M38,47a1,1,0,0,1-.919-.606l-6-14a1,1,0,0,1,1.838-.788l6,14a1,1,0,0,1-.525,1.313A.979.979,0,0,1,38,47Z" fill="#b3b3b3"></path> <path d="M26,1a1,1,0,0,0-1,1V5h2V2A1,1,0,0,0,26,1Z" fill="#b3b3b3"></path> <path d="M27,11a4,4,0,0,1,0,8H16V33H45V6H15a6.973,6.973,0,0,1-2.111,5Z" fill="#444"></path> <circle cx="8" cy="6" r="5" fill="#5a7a84"></circle> <path d="M29,15a2,2,0,0,0-2-2H7a5.006,5.006,0,0,0-5,5V44.5a2.5,2.5,0,0,0,5,0V32H9V44.5a2.5,2.5,0,0,0,5,0V17H27A2,2,0,0,0,29,15Z" fill="#5a7a84"></path> <path d="M45,5H14.92A7.026,7.026,0,0,1,15,6a7.026,7.026,0,0,1-.08,1H44V32H16v2H45a1,1,0,0,0,1-1V6A1,1,0,0,0,45,5Z" fill="#a67c52"></path></g></svg>