<svg width="120" height="60" viewBox="0 0 120 60" fill="none" xmlns="http://www.w3.org/2000/svg">
	<path d="M106.784 25.3315C106.513 25.3315 106.249 25.3876 106.016 25.5196L98.6298 29.7848C98.1519 30.0601 97.8613 30.5803 97.8613 31.1335V39.6486C97.8613 40.2016 98.1519 40.7209 98.6298 40.9971L100.559 42.1086C101.496 42.5706 101.841 42.5632 102.268 42.5632C103.655 42.5632 104.447 41.7213 104.447 40.258V31.8573C104.447 31.7385 104.345 31.6535 104.228 31.6535H103.303C103.184 31.6535 103.083 31.7407 103.083 31.8573V40.2624C103.083 40.911 102.408 41.5635 101.311 41.0152L99.3063 39.8391C99.2355 39.8005 99.1808 39.7301 99.1808 39.651V31.1359C99.1808 31.0552 99.2348 30.9729 99.3063 30.9321L106.677 26.6822C106.746 26.6425 106.828 26.6425 106.896 26.6822L114.266 30.9321C114.337 30.9742 114.392 31.0526 114.392 31.1359V39.651C114.392 39.7323 114.351 39.8156 114.282 39.8548L106.896 44.1048C106.831 44.1425 106.744 44.1425 106.677 44.1048L104.779 42.9758C104.723 42.9427 104.646 42.9453 104.591 42.9758C104.068 43.2726 103.969 43.3071 103.478 43.4775C103.357 43.5196 103.173 43.5852 103.541 43.7914L106.018 45.2516C106.254 45.388 106.517 45.4554 106.787 45.4554C107.06 45.4554 107.319 45.39 107.555 45.2516L114.941 41.0016C115.419 40.7235 115.71 40.2061 115.71 39.6532V31.1381C115.71 30.5849 115.419 30.0658 114.941 29.7894L107.555 25.5242C107.324 25.3921 107.058 25.3361 106.787 25.3361L106.784 25.3315ZM108.76 31.4162C106.657 31.4162 105.404 32.3113 105.404 33.7996C105.404 35.4124 106.647 35.8579 108.666 36.0575C111.081 36.294 111.269 36.6486 111.269 37.1239C111.269 37.9484 110.612 38.3 109.058 38.3C107.106 38.3 106.677 37.8127 106.533 36.8397C106.516 36.7356 106.436 36.6517 106.33 36.6517H105.371C105.313 36.6529 105.258 36.6765 105.217 36.7174C105.176 36.7582 105.152 36.8133 105.151 36.8711C105.151 38.1141 105.827 39.5839 109.056 39.5839C111.393 39.5839 112.741 38.6685 112.741 37.0592C112.741 35.4682 111.652 35.0382 109.385 34.7381C107.097 34.433 106.876 34.2869 106.876 33.7501C106.876 33.3073 107.061 32.7149 108.758 32.7149C110.273 32.7149 110.833 33.0418 111.063 34.0635C111.083 34.1594 111.168 34.2379 111.267 34.2379H112.226C112.285 34.2379 112.342 34.2017 112.383 34.1594C112.423 34.1143 112.451 34.0635 112.446 34.0025C112.297 32.2428 111.124 31.4151 108.761 31.4151L108.76 31.4162Z" fill="#83CD29" />
	<path d="M13.0259 25.4436C12.8766 25.4497 12.7364 25.4757 12.6024 25.5535L4.7777 30.0696C4.63436 30.1519 4.51536 30.2707 4.43275 30.4139C4.35015 30.5571 4.3069 30.7196 4.30738 30.8849L4.32329 43.0069C4.32329 43.1756 4.41047 43.3321 4.55867 43.4145C4.70404 43.5017 4.88428 43.5017 5.029 43.4145L9.67059 40.7486C9.96482 40.5742 10.1566 40.27 10.1566 39.9334V34.2723C10.1566 33.9344 10.3342 33.625 10.6274 33.4571L12.6033 32.3125C12.7461 32.2294 12.9084 32.1861 13.0736 32.1869C13.2389 32.186 13.4013 32.2293 13.5441 32.3125L15.5192 33.4565C15.8119 33.6243 15.9895 33.9342 15.9895 34.2716V39.9326C15.9895 40.2695 16.1857 40.5755 16.4755 40.7477L21.1171 43.4136C21.2631 43.5008 21.4429 43.5008 21.5874 43.4136C21.7313 43.3308 21.8228 43.1745 21.8228 43.0061L21.8385 30.8845C21.8394 30.7191 21.7964 30.5564 21.7137 30.4131C21.6311 30.2699 21.5118 30.1511 21.3682 30.0691L13.5435 25.5533C13.4112 25.4757 13.2704 25.4495 13.12 25.4434L13.0259 25.4436Z" fill="currentColor" />
	<path d="M36.5321 25.5061C36.3669 25.5058 36.2045 25.5491 36.0614 25.6316L28.2364 30.1322C27.944 30.3009 27.7661 30.6259 27.7661 30.9633V39.9956C27.7657 40.1609 27.809 40.3233 27.8915 40.4665C27.9741 40.6096 28.0931 40.7284 28.2364 40.8107L36.0614 45.327C36.2043 45.4099 36.3666 45.4536 36.5318 45.4536C36.697 45.4536 36.8593 45.4099 37.0022 45.327L44.8271 40.8107C44.9704 40.7282 45.0893 40.6094 45.1719 40.4662C45.2545 40.3231 45.2979 40.1607 45.2977 39.9954V30.963C45.2977 30.6252 45.1198 30.3005 44.8269 30.132L37.002 25.6314C36.859 25.5485 36.6974 25.5054 36.5321 25.5061Z" fill="#83CD29" />
	<path d="M63.3626 14.1688C63.2801 14.169 63.199 14.1906 63.1274 14.2316C63.0562 14.2733 62.997 14.3328 62.9558 14.4043C62.9145 14.4758 62.8926 14.5568 62.8922 14.6394V26.6356C62.8922 26.7533 62.8373 26.8588 62.7353 26.9179C62.6853 26.947 62.6285 26.9624 62.5707 26.9624C62.5128 26.9624 62.456 26.947 62.406 26.9179L60.4458 25.7889C60.3028 25.7062 60.1406 25.6626 59.9754 25.6626C59.8102 25.6626 59.6479 25.7062 59.5049 25.7889L51.6802 30.305C51.3878 30.4737 51.2095 30.7984 51.2095 31.136V40.1684C51.2092 40.3337 51.2526 40.4962 51.3352 40.6393C51.4179 40.7825 51.5368 40.9013 51.68 40.9838L59.5049 45.5001C59.6478 45.583 59.8101 45.6267 59.9754 45.6267C60.1406 45.6267 60.3029 45.583 60.4458 45.5001L68.2707 40.9838C68.4139 40.9013 68.5329 40.7825 68.6155 40.6393C68.6981 40.4962 68.7415 40.3337 68.7413 40.1684V17.6501C68.7413 17.3075 68.5543 16.986 68.2552 16.8191L63.598 14.2157C63.5247 14.1749 63.4437 14.168 63.3626 14.1688ZM83.3404 25.5535C83.1752 25.5531 83.0128 25.5964 82.8698 25.6791L75.0449 30.1954C74.7529 30.3643 74.5742 30.6731 74.5742 31.0105V40.0429C74.5742 40.3825 74.7655 40.6902 75.0602 40.858L82.8223 45.2824C83.1089 45.4458 83.4587 45.4582 83.7475 45.2976L88.4519 42.6788C88.6012 42.5959 88.7021 42.4412 88.7025 42.2712C88.7029 42.1012 88.6147 41.9482 88.4671 41.8636L80.5949 37.3473C80.4476 37.2632 80.3443 37.093 80.3443 36.9239V34.0995C80.3443 33.9308 80.4489 33.776 80.5949 33.6919L83.0411 32.2805C83.1867 32.1964 83.3654 32.1964 83.5119 32.2805L85.9592 33.6919C86.0309 33.7331 86.0904 33.7925 86.1317 33.864C86.173 33.9356 86.1946 34.0168 86.1944 34.0995V36.3262C86.1942 36.4089 86.2158 36.4901 86.2571 36.5617C86.2984 36.6333 86.3579 36.6926 86.4295 36.7338C86.5762 36.8184 86.7538 36.8188 86.9003 36.7338L91.5888 34.0058C91.8797 33.8366 92.0595 33.5269 92.0595 33.1906V31.0112C92.0595 30.8459 92.0161 30.6836 91.9335 30.5405C91.8509 30.3973 91.7321 30.2785 91.589 30.1958L83.8111 25.6795C83.6682 25.5967 83.5056 25.553 83.3404 25.5535ZM59.9439 32.2968C59.9877 32.2966 60.0308 32.3073 60.0694 32.328L62.7508 33.8804C62.8236 33.9225 62.8763 34.0003 62.8763 34.0842V37.1891C62.8763 37.2734 62.824 37.351 62.7508 37.3929L60.0694 38.9453C59.9964 38.9867 59.9073 38.9867 59.834 38.9453L57.1526 37.3929C57.0796 37.3508 57.0271 37.273 57.0271 37.1891V34.0838C57.0271 33.9997 57.0798 33.9225 57.1526 33.88L59.834 32.3278C59.8706 32.3066 59.9029 32.2968 59.9439 32.2968Z" fill="currentColor" fill-opacity="0.5" />
	<path d="M56.3535 17.6464L86.3535 47.6464" stroke="#BA160C" stroke-width="5" stroke-linecap="round" />
	<path d="M56 47L86 17" stroke="#BA160C" stroke-width="5" stroke-linecap="round" />
</svg>